<svg width="462" height="114" viewBox="0 0 462 114" fill="none" xmlns="http://www.w3.org/2000/svg">
<path d="M90.951 0.619873L18.359 21.685C13.2111 23.1766 8.85487 25.5508 5.80214 28.5287C2.74941 31.5066 1.12704 34.9644 1.12567 38.4958C1.12431 42.0272 2.744 45.4855 5.79443 48.4643C8.84486 51.4431 13.1993 53.8186 18.346 55.3117L200.281 108.177C210.164 111.049 220.941 112.538 231.85 112.54C242.76 112.541 253.537 111.054 263.422 108.185L443.641 55.8856C448.785 54.3931 453.138 52.0189 456.188 49.0419C459.238 46.065 460.859 42.6087 460.86 39.0789C460.862 35.5491 459.244 32.0924 456.196 29.1145C453.148 26.1366 448.797 23.7611 443.654 22.2671L371.049 1.16955" stroke="url(#paint0_linear_444_350)" stroke-linecap="round" stroke-linejoin="round"/>
<defs>
<linearGradient id="paint0_linear_444_350" x1="230.993" y1="0.619873" x2="230.993" y2="112.54" gradientUnits="userSpaceOnUse">
<stop stop-color="#00FF19"/>
<stop offset="0.453125" stop-color="#00F0FF"/>
<stop offset="1" stop-color="#FF0BAC"/>
</linearGradient>
</defs>
</svg>
