<svg width="462" height="150" viewBox="0 0 462 150" fill="none" xmlns="http://www.w3.org/2000/svg">
<path d="M443.514 58.236L261.579 5.36296C251.696 2.49071 240.92 1.0014 230.01 1C219.101 0.998604 208.324 2.48516 198.438 5.35487L18.2194 57.654C13.0751 59.1466 8.72243 61.5207 5.67233 64.4977C2.62224 67.4747 1.00137 70.931 1 74.4608C0.998636 77.9905 2.61684 81.4473 5.66463 84.4252C8.71242 87.4031 13.0633 89.7785 18.2064 91.2726L200.141 144.146C210.024 147.019 220.799 148.51 231.709 148.513C242.619 148.515 253.396 147.03 263.282 144.162L443.501 91.8546C448.646 90.3621 452.998 87.9879 456.049 85.0109C459.099 82.0339 460.72 78.5777 460.721 75.0479C460.722 71.5181 459.104 68.0614 456.056 65.0835C453.008 62.1056 448.658 59.7301 443.514 58.236V58.236Z" stroke="url(#paint0_linear_444_348)" stroke-linecap="round" stroke-linejoin="round"/>
<defs>
<linearGradient id="paint0_linear_444_348" x1="230.86" y1="1" x2="230.86" y2="148.513" gradientUnits="userSpaceOnUse">
<stop stop-color="#00FF19"/>
<stop offset="0.453125" stop-color="#00F0FF"/>
<stop offset="1" stop-color="#FF0BAC"/>
</linearGradient>
</defs>
</svg>
