<svg width="462" height="114" viewBox="0 0 462 114" fill="none" xmlns="http://www.w3.org/2000/svg">
<path d="M90.8253 1L18.2333 22.0652C13.0855 23.5568 8.7292 25.931 5.67647 28.9089C2.62374 31.8867 1.00137 35.3445 1 38.8759C0.998636 42.4073 2.61833 45.8656 5.66876 48.8444C8.71919 51.8232 13.0736 54.1987 18.2203 55.6918L200.155 108.557C210.038 111.43 220.813 112.921 231.723 112.924C242.632 112.927 253.41 111.441 263.296 108.573L443.515 56.2738C448.66 54.7813 453.012 52.4071 456.062 49.4302C459.113 46.4532 460.733 42.9969 460.735 39.4671C460.736 35.9373 459.118 32.4806 456.07 29.5027C453.022 26.5248 448.672 24.1493 443.528 22.6553L370.923 1.55775" stroke="url(#paint0_linear_444_349)" stroke-linecap="round" stroke-linejoin="round"/>
<defs>
<linearGradient id="paint0_linear_444_349" x1="230.867" y1="1" x2="230.867" y2="112.924" gradientUnits="userSpaceOnUse">
<stop stop-color="#00FF19"/>
<stop offset="0.453125" stop-color="#00F0FF"/>
<stop offset="1" stop-color="#FF0BAC"/>
</linearGradient>
</defs>
</svg>
